<svg id="Layer_1" data-name="Layer 1" xmlns="http://www.w3.org/2000/svg" width="785" height="172" viewBox="0 0 785 172"><defs><style>.cls-1{fill:#050708;}.cls-2{fill:none;}</style></defs><title>innovatrics-logo-freelogovectors.net_</title><path class="cls-1" d="M148.68,339.73a6.26,6.26,0,0,0-6.1,6.1v48.8a6.1,6.1,0,0,0,12.2,0v-48.8a6.26,6.26,0,0,0-6.1-6.1" transform="translate(-7.5 -314)"/><path class="cls-1" d="M630.58,339.73a6.26,6.26,0,0,0-6.1,6.1v48.8a6.1,6.1,0,0,0,12.2,0v-48.8c-.41-3.25-2.85-6.1-6.1-6.1" transform="translate(-7.5 -314)"/><path class="cls-1" d="M197.07,339.73a25.52,25.52,0,0,0-25.62,25.62v28.87a6.1,6.1,0,1,0,12.2,0V365.35a13.83,13.83,0,0,1,27.66,0v28.87a6.1,6.1,0,0,0,12.2,0V365.35c-.82-14.23-12.2-25.62-26.44-25.62" transform="translate(-7.5 -314)"/><path class="cls-1" d="M337,339.73a30.1,30.1,0,1,0,30.09,30.09A30,30,0,0,0,337,339.73m0,48.8a18.31,18.31,0,0,1-18.3-18.71,18,18,0,0,1,18.3-18.3,18.23,18.23,0,0,1,18.3,18.3A18.58,18.58,0,0,1,337,388.53" transform="translate(-7.5 -314)"/><path class="cls-1" d="M430.09,340.14a6,6,0,0,0-7.72,2.84l-16.27,36.6L389.83,343c-1.22-2.84-4.88-4.47-7.72-2.84-2.85,1.22-4.48,4.88-2.85,7.72l22,48.8a6.25,6.25,0,0,0,5.29,3.66,5.59,5.59,0,0,0,5.28-3.66l22-48.8c.82-2.84-.81-6.1-3.66-7.72" transform="translate(-7.5 -314)"/><path class="cls-1" d="M471.17,343.39a6.29,6.29,0,0,0-5.29-3.66,5.61,5.61,0,0,0-5.29,3.66l-22,48.8a5.83,5.83,0,0,0,10.58,4.88l16.26-36.6,16.27,36.6a6.26,6.26,0,0,0,5.29,3.66,5.14,5.14,0,0,0,2.44-.41c2.84-1.22,4.47-4.88,2.84-7.72Z" transform="translate(-7.5 -314)"/><path class="cls-1" d="M265.39,339.73a25.52,25.52,0,0,0-25.62,25.62v28.87a6.1,6.1,0,0,0,12.2,0V365.35a13.83,13.83,0,1,1,27.66,0v28.87a6.1,6.1,0,1,0,12.2,0V365.35c-.82-14.23-12.2-25.62-26.44-25.62" transform="translate(-7.5 -314)"/><path class="cls-1" d="M684.26,351.52h15.45a6.25,6.25,0,0,0,6.1-6.1,5.9,5.9,0,0,0-6.1-5.69H684.26a30.1,30.1,0,0,0,0,60.19h15.45a6.1,6.1,0,0,0,0-12.2H684.26a18.1,18.1,0,1,1,0-36.2" transform="translate(-7.5 -314)"/><path class="cls-1" d="M548.84,339.73H504.51a6.1,6.1,0,1,0,0,12.2h16.27v42.7a6.1,6.1,0,0,0,12.2,0V351.52h16.27a6.25,6.25,0,0,0,6.1-6.1c-.82-2.84-3.26-5.69-6.51-5.69" transform="translate(-7.5 -314)"/><path class="cls-1" d="M604.15,339.73h-11.8a25.52,25.52,0,0,0-25.62,25.62v28.87a6.1,6.1,0,1,0,12.2,0V365.35a13.71,13.71,0,0,1,13.83-13.83h11.79a6.25,6.25,0,0,0,6.1-6.1,7,7,0,0,0-6.5-5.69" transform="translate(-7.5 -314)"/><path class="cls-1" d="M755,367.79l-20.74-8.13a4,4,0,0,1-2.44-4.88c0-.82.81-3.26,4.07-3.26h21.55a6.25,6.25,0,0,0,6.1-6.1,5.91,5.91,0,0,0-6.1-5.69H735.91a16.09,16.09,0,0,0-15.86,13,15.5,15.5,0,0,0,9.76,17.9l20.74,8.13a4.27,4.27,0,0,1,2.84,5.69,4.83,4.83,0,0,1-4.88,4.07h-22a6.1,6.1,0,1,0,0,12.2h22a16.62,16.62,0,0,0,16.68-13.42c1.62-8.54-2.44-16.27-10.17-19.52" transform="translate(-7.5 -314)"/><path class="cls-1" d="M47.42,373.48A13.42,13.42,0,1,0,60.84,386.9a13.54,13.54,0,0,0-13.42-13.42" transform="translate(-7.5 -314)"/><path class="cls-1" d="M77.92,356.4a13.42,13.42,0,1,0,13.42,13.42A13.54,13.54,0,0,0,77.92,356.4" transform="translate(-7.5 -314)"/><path class="cls-1" d="M47.42,339.73a13.42,13.42,0,1,0,13.42,13.42,13.54,13.54,0,0,0-13.42-13.42" transform="translate(-7.5 -314)"/><path class="cls-1" d="M165.35,442.21c0,6.51-4.47,11-10.57,11-2.85,0-5.29-.81-6.91-2.85v2.85H143V423.91h4.88v11c1.62-2,4.06-2.85,6.91-2.85,6.1-.81,10.57,3.66,10.57,10.17m-4.88,0c0-4.07-2.84-6.51-6.1-6.51-3.66,0-6.1,2.44-6.1,6.51s2.85,6.51,6.1,6.51,6.1-2.44,6.1-6.51" transform="translate(-7.5 -314)"/><path class="cls-1" d="M189.75,431.64v21.14h-4.88v-2.84c-1.62,2-4.06,2.84-6.91,2.84-5.29,0-9-2.84-9-9.35v-12.2h4.88v11.39c0,3.66,1.63,5.69,4.88,5.69s5.7-2,5.7-6.51V431.23h5.28Z" transform="translate(-7.5 -314)"/><path class="cls-1" d="M194.63,425.13c0-1.63,1.22-2.85,3.26-2.85a3.14,3.14,0,0,1,3.25,2.85,3.2,3.2,0,0,1-3.25,3.25c-2-.4-3.26-1.62-3.26-3.25m.82,6.51h4.88v21.14h-4.88Z" transform="translate(-7.5 -314)"/><rect class="cls-1" x="198.11" y="109.5" width="4.88" height="29.28"/><path class="cls-1" d="M236.93,423.5v29.28h-4.88v-2.84c-1.63,2-4.07,2.84-6.92,2.84-6.1,0-10.57-4.06-10.57-11,0-6.5,4.47-11,10.57-11,2.85,0,5.29.82,6.92,2.85v-11h4.88Zm-4.88,18.71c0-4.07-2.85-6.51-6.1-6.51-3.66,0-6.1,2.44-6.1,6.51s2.84,6.51,6.1,6.51,6.1-2.44,6.1-6.51" transform="translate(-7.5 -314)"/><path class="cls-1" d="M241.81,425.13c0-1.63,1.22-2.85,3.25-2.85a3.14,3.14,0,0,1,3.25,2.85,3.2,3.2,0,0,1-3.25,3.25c-2-.4-3.25-1.62-3.25-3.25m.4,6.51h4.88v21.14h-4.88Z" transform="translate(-7.5 -314)"/><path class="cls-1" d="M273.53,440.58v12.2h-4.88V441.4c0-3.66-2-5.7-4.88-5.7-3.66,0-5.7,2-5.7,6.51v10.57h-4.88V431.64h4.48v2.84c1.62-2,4.06-2.84,7.32-2.84,4.88-.41,8.54,2.44,8.54,8.94" transform="translate(-7.5 -314)"/><path class="cls-1" d="M300,431.64v17.89c0,7.73-4.07,11-11.39,11a18.76,18.76,0,0,1-10.16-2.85l2-3.66a12.49,12.49,0,0,0,7.73,2.44c4.47,0,6.91-2,6.91-6.5v-1.22c-1.63,2-4.07,2.84-6.91,2.84-6.1,0-10.58-4.06-10.58-10.16s4.48-10.17,10.58-10.17c2.84,0,5.69.81,7.32,2.85v-2.85H300Zm-4.88,9.76c0-3.66-2.85-6.1-6.51-6.1s-6.5,2.44-6.5,6.1,2.84,6.1,6.5,6.1,6.51-2.44,6.51-6.1" transform="translate(-7.5 -314)"/><path class="cls-1" d="M334.93,440.18v12.2h-4.47v-2.44a8.21,8.21,0,0,1-6.51,2.84c-4.88,0-7.72-2.84-7.72-6.5s2.44-6.1,8.94-6.1h5.29v-.41c0-2.85-1.63-4.47-5.29-4.47a11.21,11.21,0,0,0-6.5,2l-2-3.66a16.39,16.39,0,0,1,8.95-2.44c5.69,0,9.35,2.85,9.35,8.95m-4.88,5.69v-2.44h-5.28c-3.26,0-4.07,1.22-4.07,2.85s1.63,2.84,4.07,2.84a4.52,4.52,0,0,0,5.28-3.25" transform="translate(-7.5 -314)"/><polygon class="cls-1" points="377.45 117.64 369.73 138.78 364.85 138.78 359.56 124.14 353.87 138.78 349.39 138.78 341.67 117.64 346.14 117.64 351.83 133.09 357.53 117.64 361.59 117.64 367.29 133.09 372.98 117.64 377.45 117.64"/><path class="cls-1" d="M385.36,442.21c0-6.51,4.88-11,11.39-11s11.38,4.47,11.38,11-4.88,11-11.38,11c-6.51-.41-11.39-4.88-11.39-11m17.49,0c0-4.07-2.85-6.51-6.1-6.51-3.66,0-6.1,2.44-6.1,6.51s2.84,6.51,6.1,6.51c3.66,0,6.1-2.44,6.1-6.51" transform="translate(-7.5 -314)"/><path class="cls-1" d="M424,431.23v4.88h-1.22c-3.66,0-6.1,2-6.1,6.51v10.16h-4.88V431.64h4.88v3.25c1.22-2.44,4.07-3.66,7.32-3.66" transform="translate(-7.5 -314)"/><rect class="cls-1" x="419.75" y="109.5" width="4.88" height="29.28"/><path class="cls-1" d="M458.56,423.5v29.28h-4.88v-2.84c-1.63,2-4.07,2.84-6.91,2.84-6.1,0-10.58-4.06-10.58-11,0-6.5,4.48-11,10.58-11,2.84,0,5.28.82,6.91,2.85v-11h4.88Zm-4.88,18.71c0-4.07-2.85-6.51-6.1-6.51-3.66,0-6.1,2.44-6.1,6.51s2.85,6.51,6.1,6.51,6.1-2.44,6.1-6.51" transform="translate(-7.5 -314)"/><path class="cls-1" d="M474,442.21c0-6.51,4.88-11,11.39-11s11.39,4.47,11.39,11-4.88,11-11.39,11c-6.51-.41-11.39-4.88-11.39-11m17.49,0c0-4.07-2.85-6.51-6.1-6.51-3.66,0-6.1,2.44-6.1,6.51s2.85,6.51,6.1,6.51c3.66,0,6.1-2.44,6.1-6.51" transform="translate(-7.5 -314)"/><path class="cls-1" d="M506.14,430.42v1.22h5.69v4.06h-5.69v17.08h-4.88V435.7H497.6v-4.06h3.66v-1.22c0-4.48,2.85-7.32,7.73-7.32a8.15,8.15,0,0,1,4.47,1.22L512.24,428a5.84,5.84,0,0,0-2.85-.82c-2.44,0-3.25,1.22-3.25,3.26" transform="translate(-7.5 -314)"/><path class="cls-1" d="M525.25,425.13c0-1.63,1.22-2.85,3.26-2.85a3.14,3.14,0,0,1,3.25,2.85,3.2,3.2,0,0,1-3.25,3.25c-1.63-.4-3.26-1.62-3.26-3.25m.82,6.51H531v21.14h-4.88Z" transform="translate(-7.5 -314)"/><path class="cls-1" d="M557.38,440.58v12.2H552.5V441.4c0-3.66-2-5.7-4.88-5.7-3.66,0-5.69,2-5.69,6.51v10.57h-4.88V431.64h4.88v2.84c1.62-2,4.06-2.84,7.32-2.84,4.06-.41,8.13,2.44,8.13,8.94" transform="translate(-7.5 -314)"/><path class="cls-1" d="M560.63,450.75l2-3.66a15.21,15.21,0,0,0,7.32,2c3.25,0,4.47-.81,4.47-2.44,0-4.06-13-.4-13-8.54,0-4.06,3.66-6.5,9.35-6.5a19.94,19.94,0,0,1,7.73,1.62l-2,3.66a11.44,11.44,0,0,0-6.1-1.62c-2.84,0-4.47.81-4.47,2.44,0,4.06,13,.4,13,8.54,0,4.06-3.66,6.5-9.76,6.5-3.25,0-6.91-.81-8.54-2" transform="translate(-7.5 -314)"/><path class="cls-1" d="M596,451.56a8.6,8.6,0,0,1-4.88,1.22c-4.47,0-7.32-2.44-7.32-6.91V435.7h-3.66v-4.06h3.66v-4.88h4.88v4.88h5.7v4.06h-5.7v10.17c0,2,1.22,3.25,2.85,3.25a5.88,5.88,0,0,0,2.85-.81Z" transform="translate(-7.5 -314)"/><path class="cls-1" d="M616.75,440.18v12.2h-4.47v-2.44a8.21,8.21,0,0,1-6.51,2.84c-4.88,0-7.72-2.84-7.72-6.5s2.44-6.1,8.94-6.1h5.29v-.41c0-2.85-1.63-4.47-5.29-4.47a11.21,11.21,0,0,0-6.5,2l-2-3.66a16.39,16.39,0,0,1,8.95-2.44c5.69,0,9.35,2.85,9.35,8.95m-4.88,5.69v-2.44h-5.28c-3.26,0-4.07,1.22-4.07,2.85s1.63,2.84,4.07,2.84a4.52,4.52,0,0,0,5.28-3.25" transform="translate(-7.5 -314)"/><path class="cls-1" d="M642.78,440.58v12.2H637.9V441.4c0-3.66-2-5.7-4.88-5.7-3.66,0-5.69,2-5.69,6.51v10.57h-4.88V431.64h4.88v2.84c1.62-2,4.06-2.84,7.32-2.84,4.47-.41,8.13,2.44,8.13,8.94" transform="translate(-7.5 -314)"/><path class="cls-1" d="M660.67,451.56a8.6,8.6,0,0,1-4.88,1.22c-4.47,0-7.32-2.44-7.32-6.91V435.7h-3.66v-4.06h3.66v-4.88h4.88v4.88h5.7v4.06h-5.7v10.17c0,2,1.22,3.25,2.85,3.25a5.88,5.88,0,0,0,2.85-.81Z" transform="translate(-7.5 -314)"/><path class="cls-1" d="M688.33,451.56a8.63,8.63,0,0,1-4.88,1.22c-4.48,0-7.32-2.44-7.32-6.91V435.7h-3.66v-4.06h3.66v-4.88H681v4.88h5.69v4.06H681v10.17c0,2,1.22,3.25,2.84,3.25a5.84,5.84,0,0,0,2.85-.81Z" transform="translate(-7.5 -314)"/><path class="cls-1" d="M703.37,431.23v4.88h-1.22c-3.66,0-6.1,2-6.1,6.51v10.16h-4.88V431.64h4.88v3.25q1.83-3.66,7.32-3.66" transform="translate(-7.5 -314)"/><path class="cls-1" d="M727,431.64v21.14h-4.88v-2.84c-1.63,2-4.07,2.84-6.91,2.84-5.29,0-8.95-2.84-8.95-9.35v-12.2h4.88v11.39c0,3.66,1.63,5.69,4.88,5.69s5.69-2,5.69-6.51V431.23H727Z" transform="translate(-7.5 -314)"/><path class="cls-1" d="M730.62,450.75l2-3.66a15.24,15.24,0,0,0,7.32,2c3.26,0,4.48-.81,4.48-2.44,0-4.06-13-.4-13-8.54,0-4.06,3.66-6.5,9.36-6.5a19.89,19.89,0,0,1,7.72,1.62l-2,3.66a11.47,11.47,0,0,0-6.1-1.62c-2.85,0-4.47.81-4.47,2.44,0,4.06,13,.4,13,8.54,0,4.06-3.66,6.5-9.76,6.5a17.66,17.66,0,0,1-8.54-2" transform="translate(-7.5 -314)"/><path class="cls-1" d="M766,451.56a8.63,8.63,0,0,1-4.88,1.22c-4.47,0-7.32-2.44-7.32-6.91V435.7h-3.66v-4.06h3.66v-4.88h4.88v4.88h5.69v4.06h-5.69v10.17c0,2,1.22,3.25,2.85,3.25a5.8,5.8,0,0,0,2.84-.81Z" transform="translate(-7.5 -314)"/><rect class="cls-2" width="785" height="172"/></svg>